<?xml version="1.0" encoding="UTF-8"?>
<!DOCTYPE svg PUBLIC "-//W3C//DTD SVG 1.1//EN" "http://www.w3.org/Graphics/SVG/1.1/DTD/svg11.dtd">
<svg version="1.1" xmlns="http://www.w3.org/2000/svg" xmlns:xlink="http://www.w3.org/1999/xlink" x="0" y="0" width="768" height="1024" viewBox="0, 0, 768, 1024">
  <g id="Layer_1">
    <path d="M131.5,241 C127.358,241 124,237.642 124,233.5 C124,229.358 127.358,226 131.5,226 C135.642,226 139,229.358 139,233.5 C139,237.642 135.642,241 131.5,241 z" fill="#A5D8FF"/>
    <path d="M0.5,304.673 L131.833,234.674" fill-opacity="0" stroke="#AFD8FB" stroke-width="2"/>
    <path d="M131.833,234.674 L167,313.156" fill-opacity="0" stroke="#AFD8FB" stroke-width="2"/>
    <path d="M165.667,321.174 C161.525,321.174 158.167,317.816 158.167,313.674 C158.167,309.531 161.525,306.174 165.667,306.174 C169.809,306.174 173.167,309.531 173.167,313.674 C173.167,317.816 169.809,321.174 165.667,321.174 z" fill="#A5D8FF"/>
    <path d="M116.167,123.5 C116.167,127.642 112.809,131 108.667,131 C104.525,131 101.167,127.642 101.167,123.5 C101.167,119.358 104.525,116 108.667,116 C112.809,116 116.167,119.358 116.167,123.5 z" fill="#A5D8FF"/>
    <path d="M131.833,234.833 L110,124.167" fill-opacity="0" stroke="#AFD8FB" stroke-width="2"/>
    <path d="M110,124.167 L182,55.5" fill-opacity="0" stroke="#AFD8FB" stroke-width="2"/>
    <path d="M188.167,54.5 C188.167,58.642 184.809,62 180.667,62 C176.525,62 173.167,58.642 173.167,54.5 C173.167,50.358 176.525,47 180.667,47 C184.809,47 188.167,50.358 188.167,54.5 z" fill="#A5D8FF"/>
    <path d="M0.5,174.833 L131.833,234.833" fill-opacity="0" stroke="#AFD8FB" stroke-width="2"/>
    <path d="M355.833,376.167 L418.5,418.389" fill-opacity="0" stroke="#AFD8FB" stroke-width="2"/>
    <path d="M394.167,253.167 C394.167,257.309 390.809,260.667 386.667,260.667 C382.525,260.667 379.167,257.309 379.167,253.167 C379.167,249.024 382.525,245.667 386.667,245.667 C390.809,245.667 394.167,249.024 394.167,253.167 z" fill="#A5D8FF"/>
    <path d="M331.833,294.167 L355.833,376.167" fill-opacity="0" stroke="#AFD8FB" stroke-width="2"/>
    <path d="M362,374.833 C362,378.975 358.642,382.333 354.5,382.333 C350.358,382.333 347,378.975 347,374.833 C347,370.691 350.358,367.333 354.5,367.333 C358.642,367.333 362,370.691 362,374.833 z" fill="#A5D8FF"/>
    <path d="M167,316.167 L173.667,400.167" fill-opacity="0" stroke="#AFD8FB" stroke-width="2"/>
    <path d="M174,407.667 C169.858,407.667 166.5,404.309 166.5,400.167 C166.5,396.025 169.858,392.667 174,392.667 C178.142,392.667 181.5,396.025 181.5,400.167 C181.5,404.309 178.142,407.667 174,407.667 z" fill="#A5D8FF"/>
    <path d="M0.5,131.5 L110,124.167" fill-opacity="0" stroke="#AFD8FB" stroke-width="2"/>
    <path d="M314.533,412.163 C316.605,415.75 315.375,420.337 311.788,422.408 C308.201,424.479 303.614,423.25 301.543,419.663 C299.472,416.076 300.701,411.489 304.288,409.418 C307.875,407.347 312.462,408.576 314.533,412.163 z" fill="#A5D8FF"/>
    <path d="M355.833,376.167 L309.343,416.141" fill-opacity="0" stroke="#AFD8FB" stroke-width="2"/>
    <path d="M309.343,416.141 L331.833,294.167" fill-opacity="0" stroke="#AFD8FB" stroke-width="2"/>
    <path d="M338.462,289.074 C340.533,292.661 339.304,297.248 335.716,299.319 C332.129,301.39 327.542,300.161 325.471,296.574 C323.4,292.987 324.629,288.4 328.216,286.329 C331.804,284.258 336.391,285.487 338.462,289.074 z" fill="#A5D8FF"/>
    <path d="M309.343,418.389 L173.667,400.167" fill-opacity="0" stroke="#AFD8FB" stroke-width="2"/>
    <path d="M167,313.156 L309.343,416.141" fill-opacity="0" stroke="#AFD8FB" stroke-width="2"/>
    <path d="M230.84,219.536 C234.428,217.465 239.014,218.694 241.086,222.281 C243.157,225.868 241.928,230.455 238.34,232.526 C234.753,234.597 230.166,233.368 228.095,229.781 C226.024,226.194 227.253,221.607 230.84,219.536 z" fill="#A5D8FF"/>
    <path d="M319.742,151.484 L234.818,225.726" fill-opacity="0" stroke="#AFD8FB" stroke-width="2"/>
    <path d="M234.818,225.726 L135.167,234.032" fill-opacity="0" stroke="#AFD8FB" stroke-width="2"/>
    <path d="M42.582,329.711 C46.169,327.64 50.756,328.869 52.827,332.456 C54.898,336.043 53.669,340.63 50.082,342.701 C46.495,344.772 41.908,343.543 39.837,339.956 C37.766,336.369 38.995,331.782 42.582,329.711 z" fill="#A5D8FF"/>
    <path d="M331.833,294.167 L131.833,234.833" fill-opacity="0" stroke="#AFD8FB" stroke-width="2"/>
    <path d="M315.187,145.627 C318.774,143.556 323.361,144.785 325.432,148.373 C327.503,151.96 326.274,156.547 322.687,158.618 C319.099,160.689 314.512,159.46 312.441,155.873 C310.37,152.285 311.599,147.699 315.187,145.627 z" fill="#A5D8FF"/>
    <path d="M331.833,294.167 L385.833,252.833" fill-opacity="0" stroke="#AFD8FB" stroke-width="2"/>
    <path d="M426.163,416.361 C428.234,419.948 427.005,424.535 423.418,426.606 C419.831,428.677 415.244,427.448 413.173,423.861 C411.102,420.274 412.331,415.687 415.918,413.616 C419.505,411.545 424.092,412.774 426.163,416.361 z" fill="#A5D8FF"/>
    <path d="M45.833,338.167 L167,316.167" fill-opacity="0" stroke="#AFD8FB" stroke-width="2"/>
    <path d="M0.5,329.205 L45.833,338.167" fill-opacity="0" stroke="#AFD8FB" stroke-width="2"/>
    <path d="M173.667,400.167 L45.833,338.167" fill-opacity="0" stroke="#AFD8FB" stroke-width="2"/>
    <path d="M0.5,428.112 L45.833,338.167" fill-opacity="0" stroke="#AFD8FB" stroke-width="2"/>
    <path d="M517.974,493.125 C520.43,489.789 525.125,489.076 528.461,491.531 C531.796,493.987 532.51,498.682 530.054,502.018 C527.599,505.353 522.904,506.067 519.568,503.611 C516.232,501.156 515.519,496.461 517.974,493.125 z" fill="#A5D8FF"/>
    <path d="M491.71,366.925 L336.167,294.167" fill-opacity="0" stroke="#AFD8FB" stroke-width="2"/>
    <path d="M524.071,497.538 L440.019,479.331" fill-opacity="0" stroke="#AFD8FB" stroke-width="2"/>
    <path d="M433.154,473.11 C435.609,469.774 440.304,469.061 443.64,471.517 C446.976,473.972 447.689,478.667 445.233,482.003 C442.778,485.338 438.083,486.052 434.747,483.596 C431.411,481.141 430.698,476.446 433.154,473.11 z" fill="#A5D8FF"/>
    <path d="M523.942,497.443 L562.167,546.833" fill-opacity="0" stroke="#AFD8FB" stroke-width="2"/>
    <path d="M277.327,594.047 L206.173,619.482" fill-opacity="0" stroke="#AFD8FB" stroke-width="2"/>
    <path d="M80.457,448.888 C77.121,446.433 76.408,441.738 78.863,438.402 C81.319,435.066 86.014,434.353 89.35,436.808 C92.685,439.264 93.399,443.959 90.943,447.295 C88.488,450.63 83.793,451.344 80.457,448.888 z" fill="#A5D8FF"/>
    <path d="M357.592,623.332 L277.327,594.047" fill-opacity="0" stroke="#AFD8FB" stroke-width="2"/>
    <path d="M273.546,599.41 C270.21,596.954 269.497,592.259 271.952,588.923 C274.408,585.588 279.103,584.874 282.439,587.33 C285.774,589.785 286.488,594.48 284.032,597.816 C281.577,601.152 276.882,601.865 273.546,599.41 z" fill="#A5D8FF"/>
    <path d="M437.594,477.546 L421.5,423.914" fill-opacity="0" stroke="#AFD8FB" stroke-width="2"/>
    <path d="M213.549,465.099 C216.004,461.763 220.699,461.05 224.035,463.506 C227.371,465.961 228.084,470.656 225.629,473.992 C223.173,477.328 218.478,478.041 215.142,475.585 C211.807,473.13 211.093,468.435 213.549,465.099 z" fill="#A5D8FF"/>
    <path d="M271.624,539.053 C267.507,538.595 264.542,534.885 265.001,530.769 C265.459,526.652 269.168,523.687 273.285,524.146 C277.402,524.604 280.367,528.313 279.908,532.43 C279.45,536.547 275.74,539.512 271.624,539.053 z" fill="#A5D8FF"/>
    <path d="M277.327,594.047 L272.697,532.909" fill-opacity="0" stroke="#AFD8FB" stroke-width="2"/>
    <path d="M272.697,532.909 L357.592,623.332" fill-opacity="0" stroke="#AFD8FB" stroke-width="2"/>
    <path d="M356.564,631.295 C352.448,630.836 349.482,627.127 349.941,623.011 C350.4,618.894 354.109,615.929 358.226,616.388 C362.342,616.846 365.308,620.555 364.849,624.672 C364.39,628.789 360.681,631.754 356.564,631.295 z" fill="#A5D8FF"/>
    <path d="M220.833,470.556 L173.667,400.167" fill-opacity="0" stroke="#AFD8FB" stroke-width="2"/>
    <path d="M440.019,479.331 L272.696,532.909" fill-opacity="0" stroke="#AFD8FB" stroke-width="2"/>
    <path d="M476.367,586.877 C475.908,590.993 472.199,593.959 468.083,593.5 C463.966,593.041 461.001,589.332 461.459,585.215 C461.918,581.099 465.627,578.133 469.744,578.592 C473.86,579.051 476.826,582.76 476.367,586.877 z" fill="#A5D8FF"/>
    <path d="M173.667,401.569 L85.5,442.902" fill-opacity="0" stroke="#AFD8FB" stroke-width="2"/>
    <path d="M85.5,445.884 L188.667,509.995" fill-opacity="0" stroke="#AFD8FB" stroke-width="2"/>
    <path d="M471.554,586.369 L523.942,501.194" fill-opacity="0" stroke="#AFD8FB" stroke-width="2"/>
    <path d="M499.248,368.926 C498.789,373.043 495.08,376.008 490.963,375.55 C486.847,375.091 483.881,371.382 484.34,367.265 C484.799,363.148 488.508,360.183 492.625,360.642 C496.741,361.101 499.707,364.81 499.248,368.926 z" fill="#A5D8FF"/>
    <path d="M357.592,623.332 L523.942,497.443" fill-opacity="0" stroke="#AFD8FB" stroke-width="2"/>
    <path d="M85.5,440.833 L0.5,428.112" fill-opacity="0" stroke="#AFD8FB" stroke-width="2"/>
    <path d="M202.064,626.462 C197.948,626.003 194.982,622.294 195.441,618.178 C195.9,614.061 199.609,611.096 203.726,611.554 C207.842,612.013 210.808,615.722 210.349,619.839 C209.89,623.956 206.181,626.921 202.064,626.462 z" fill="#A5D8FF"/>
    <path d="M491.71,366.925 L437.594,477.546" fill-opacity="0" stroke="#AFD8FB" stroke-width="2"/>
    <path d="M491.71,366.925 L422.647,418.389" fill-opacity="0" stroke="#AFD8FB" stroke-width="2"/>
    <path d="M220.833,470.556 L309.343,416.141" fill-opacity="0" stroke="#AFD8FB" stroke-width="2"/>
    <path d="M0.5,59.5 L110,124.167" fill-opacity="0" stroke="#AFD8FB" stroke-width="2"/>
    <path d="M568.286,547.431 C567.828,551.548 564.119,554.513 560.002,554.055 C555.885,553.596 552.92,549.887 553.379,545.77 C553.838,541.653 557.547,538.688 561.663,539.147 C565.78,539.606 568.745,543.315 568.286,547.431 z" fill="#A5D8FF"/>
    <path d="M440.019,479.331 L355.833,376.167" fill-opacity="0" stroke="#AFD8FB" stroke-width="2"/>
    <path d="M437.594,477.546 L309.343,416.141" fill-opacity="0" stroke="#AFD8FB" stroke-width="2"/>
    <path d="M471.554,586.369 L357.592,623.332" fill-opacity="0" stroke="#AFD8FB" stroke-width="2"/>
    <path d="M357.592,623.332 L437.594,477.546" fill-opacity="0" stroke="#AFD8FB" stroke-width="2"/>
    <path d="M201.876,619.483 L272.696,532.909" fill-opacity="0" stroke="#AFD8FB" stroke-width="2"/>
    <path d="M182.961,507.554 C185.416,504.218 190.111,503.504 193.447,505.96 C196.783,508.416 197.496,513.111 195.04,516.446 C192.585,519.782 187.89,520.496 184.554,518.04 C181.218,515.584 180.505,510.889 182.961,507.554 z" fill="#A5D8FF"/>
    <path d="M188.667,509.995 L220.833,470.556" fill-opacity="0" stroke="#AFD8FB" stroke-width="2"/>
    <path d="M272.696,532.909 L220.833,470.556" fill-opacity="0" stroke="#AFD8FB" stroke-width="2"/>
    <path d="M0.5,497.538 L85.5,445.884" fill-opacity="0" stroke="#AFD8FB" stroke-width="2"/>
    <path d="M188.667,514.222 L0.5,509.995" fill-opacity="0" stroke="#AFD8FB" stroke-width="2"/>
    <path d="M201.876,619.483 L188.667,514.222" fill-opacity="0" stroke="#AFD8FB" stroke-width="2"/>
    <path d="M272.696,532.909 L188.667,514.222" fill-opacity="0" stroke="#AFD8FB" stroke-width="2"/>
  </g>
</svg>
